<svg width="39" height="26" viewBox="0 0 39 26" fill="none" xmlns="http://www.w3.org/2000/svg">
<path d="M30.5 18L26 14L28 11.5L30.5 13.5L35.5 7.5L38 9.5L30.5 18Z" fill="#94D54B" stroke="#4B8324"/>
<circle cx="13" cy="13" r="5.5" fill="#D73C3F" stroke="#AE0304"/>
<g filter="url(#filter0_d_6_432)">
<path d="M9.49348 10.3361C9.05366 9.77787 9.77785 9.05367 10.3361 9.49349L12.3566 11.0854C12.5744 11.257 12.8814 11.257 13.0992 11.0854L15.1197 9.49349C15.678 9.05367 16.4022 9.77787 15.9624 10.3361L14.3705 12.3566C14.1989 12.5744 14.1989 12.8814 14.3705 13.0993L15.9624 15.1198C16.4022 15.678 15.678 16.4022 15.1197 15.9624L13.0992 14.3705C12.8814 14.1989 12.5744 14.1989 12.3566 14.3705L10.3361 15.9624C9.77785 16.4022 9.05366 15.678 9.49348 15.1198L11.0854 13.0993C11.257 12.8814 11.257 12.5744 11.0854 12.3566L9.49348 10.3361Z" fill="#A5A5A5"/>
</g>
<path d="M9.49348 10.3361C9.05366 9.77787 9.77785 9.05367 10.3361 9.49349L12.3566 11.0854C12.5744 11.257 12.8814 11.257 13.0992 11.0854L15.1197 9.49349C15.678 9.05367 16.4022 9.77787 15.9624 10.3361L14.3705 12.3566C14.1989 12.5744 14.1989 12.8814 14.3705 13.0993L15.9624 15.1198C16.4022 15.678 15.678 16.4022 15.1197 15.9624L13.0992 14.3705C12.8814 14.1989 12.5744 14.1989 12.3566 14.3705L10.3361 15.9624C9.77785 16.4022 9.05366 15.678 9.49348 15.1198L11.0854 13.0993C11.257 12.8814 11.257 12.5744 11.0854 12.3566L9.49348 10.3361Z" fill="white"/>
<defs>
<filter id="filter0_d_6_432" x="7.35797" y="8.358" width="10.7399" height="10.7399" filterUnits="userSpaceOnUse" color-interpolation-filters="sRGB">
<feFlood flood-opacity="0" result="BackgroundImageFix"/>
<feColorMatrix in="SourceAlpha" type="matrix" values="0 0 0 0 0 0 0 0 0 0 0 0 0 0 0 0 0 0 127 0" result="hardAlpha"/>
<feOffset dy="1"/>
<feGaussianBlur stdDeviation="1"/>
<feComposite in2="hardAlpha" operator="out"/>
<feColorMatrix type="matrix" values="0 0 0 0 0.679167 0 0 0 0 0 0 0 0 0 0 0 0 0 0.96 0"/>
<feBlend mode="normal" in2="BackgroundImageFix" result="effect1_dropShadow_6_432"/>
<feBlend mode="normal" in="SourceGraphic" in2="effect1_dropShadow_6_432" result="shape"/>
</filter>
</defs>
</svg>
